HIERARCHY
ROOT Hips
{
	OFFSET -0.001795 -0.223333 0.028219
	CHANNELS 6 Xposition Yposition Zposition Zrotation Yrotation Xrotation 
	JOINT LeftUpLeg
	{
		OFFSET 0.069520 -0.091406 -0.006815
		CHANNELS 3 Zrotation Yrotation Xrotation
		JOINT LeftLeg
		{
			OFFSET 0.034277 -0.375199 -0.004496
			CHANNELS 3 Zrotation Yrotation Xrotation
			JOINT LeftFoot
			{
				OFFSET -0.013596 -0.397961 -0.043693
				CHANNELS 3 Zrotation Yrotation Xrotation
				JOINT LeftToe
				{
					OFFSET 0.026358 -0.055791 0.119288
					CHANNELS 3 Zrotation Yrotation Xrotation
					End Site
					{
						OFFSET 0.000000 0.000000 0.000000
					}
				}
			}
		}
	}
	JOINT RightUpLeg
	{
		OFFSET -0.067670 -0.090522 -0.004320
		CHANNELS 3 Zrotation Yrotation Xrotation
		JOINT RightLeg
		{
			OFFSET -0.038290 -0.382569 -0.008850
			CHANNELS 3 Zrotation Yrotation Xrotation
			JOINT RightFoot
			{
				OFFSET 0.015774 -0.398415 -0.042312
				CHANNELS 3 Zrotation Yrotation Xrotation
				JOINT RightToe
				{
					OFFSET -0.025372 -0.048144 0.123348
					CHANNELS 3 Zrotation Yrotation Xrotation
					End Site
					{
						OFFSET 0.000000 0.000000 0.000000
					}
				}
			}
		}
	}
	JOINT Spine
	{
		OFFSET -0.002533 0.108963 -0.026696
		CHANNELS 3 Zrotation Yrotation Xrotation
		JOINT Spine1
		{
			OFFSET 0.005487 0.135180 0.001092
			CHANNELS 3 Zrotation Yrotation Xrotation
			JOINT Spine2
			{
				OFFSET 0.001457 0.052922 0.025425
				CHANNELS 3 Zrotation Yrotation Xrotation
				JOINT Neck
				{
					OFFSET -0.002778 0.213870 -0.042857
					CHANNELS 3 Zrotation Yrotation Xrotation
					JOINT Head
					{
						OFFSET 0.005152 0.064970 0.051349
						CHANNELS 3 Zrotation Yrotation Xrotation
						End Site
						{
							OFFSET 0.000000 0.000000 0.000000
						}
					}
				}
				JOINT LeftShoulder
				{
					OFFSET 0.078845 0.121749 -0.034090
					CHANNELS 3 Zrotation Yrotation Xrotation
					JOINT LeftArm
					{
						OFFSET 0.090977 0.030469 -0.008868
						CHANNELS 3 Zrotation Yrotation Xrotation
						JOINT LeftForeArm
						{
							OFFSET 0.259612 -0.012772 -0.027456
							CHANNELS 3 Zrotation Yrotation Xrotation
							JOINT LeftHand
							{
								OFFSET 0.249234 0.008986 -0.001171
								CHANNELS 3 Zrotation Yrotation Xrotation
								End Site
								{
									OFFSET 0.000000 0.000000 0.000000
								}
							}
						}
					}
				}
				JOINT RightShoulder
				{
					OFFSET -0.081759 0.118833 -0.038615
					CHANNELS 3 Zrotation Yrotation Xrotation
					JOINT RightArm
					{
						OFFSET -0.096012 0.032551 -0.009143
						CHANNELS 3 Zrotation Yrotation Xrotation
						JOINT RightForeArm
						{
							OFFSET -0.253742 -0.013329 -0.021401
							CHANNELS 3 Zrotation Yrotation Xrotation
							JOINT RightHand
							{
								OFFSET -0.255298 0.007772 -0.005559
								CHANNELS 3 Zrotation Yrotation Xrotation
								End Site
								{
									OFFSET 0.000000 0.000000 0.000000
								}
							}
						}
					}
				}
			}
		}
	}
}
MOTION
Frames: 9
Frame Time: 0.050000
0.094176 0.943717 0.285051 7.175478 -65.762786 1.847085 -1.470242 -0.343901 -4.567565 0.146412 0.605779 -11.005551 12.888279 16.937919 19.736982 0.000000 0.000000 0.000000 -7.329500 1.936740 -12.032823 -0.186175 0.338883 -4.104427 10.083920 5.331920 12.701813 0.000000 0.000000 0.000000 13.454550 0.016805 18.989854 15.999279 -2.711385 9.431308 -7.737063 -0.216557 -6.750141 10.259091 -5.516105 -19.989661 0.000000 0.000000 0.000000 -6.212352 -40.477811 20.798707 -9.910643 -32.422468 0.533768 26.866910 -40.860534 -7.602924 0.000000 0.000000 0.000000 26.375601 39.380763 12.742426 24.030995 15.232534 2.850488 2.920982 49.826882 1.041986 0.000000 0.000000 0.000000 
0.094497 0.943316 0.286361 7.294678 -66.678440 1.757054 -1.675775 -0.351247 -4.314174 0.380734 0.616317 -11.340085 13.375147 17.577460 20.006570 0.000000 0.000000 0.000000 -7.566276 1.996317 -12.110914 0.176038 0.400891 -4.355350 10.508897 5.801591 12.938889 0.000000 0.000000 0.000000 13.200978 0.067890 18.974786 16.068360 -2.560529 9.706624 -7.521651 -0.693374 -6.803806 9.841861 -5.393209 -19.599123 0.000000 0.000000 0.000000 -6.072409 -40.074975 20.698849 -9.851311 -31.902955 0.493438 26.671117 -41.424469 -7.586044 0.000000 0.000000 0.000000 26.778427 39.458753 12.428873 24.755682 14.707666 2.965947 5.605161 50.973670 2.131359 0.000000 0.000000 0.000000 
0.094999 0.943230 0.287315 7.029965 -67.488805 2.188960 -1.606159 -0.344360 -4.540994 0.442332 0.593182 -11.210656 13.842692 18.177282 20.185784 0.000000 0.000000 0.000000 -7.328838 2.001246 -12.301427 0.001098 0.424484 -4.713272 11.033625 6.245428 13.313095 0.000000 0.000000 0.000000 12.757360 0.106279 18.952713 16.268870 -2.432808 9.918836 -7.334192 -1.054789 -6.881155 9.838701 -5.451179 -19.122081 0.000000 0.000000 0.000000 -6.632332 -39.699223 20.950163 -9.326577 -31.209889 0.331000 26.479379 -41.172568 -7.463253 0.000000 0.000000 0.000000 27.546236 39.381978 12.137163 25.682705 13.911910 3.039219 8.152772 52.365560 3.261060 0.000000 0.000000 0.000000 
0.095614 0.942950 0.288004 6.763282 -68.704892 2.489104 -1.607297 -0.335584 -4.642759 0.689505 0.537323 -11.005544 14.550205 19.120650 20.471147 0.000000 0.000000 0.000000 -7.249264 2.027391 -12.427597 0.226512 0.502360 -5.119300 11.735319 6.865813 13.801454 0.000000 0.000000 0.000000 12.409143 0.189486 19.117355 15.939416 -2.175472 9.892083 -6.866871 -1.218523 -6.555601 9.400274 -5.328546 -18.970673 0.000000 0.000000 0.000000 -6.778226 -39.031062 20.884760 -8.848325 -31.021756 0.227380 25.997431 -40.858590 -7.197810 0.000000 0.000000 0.000000 28.130497 39.256652 11.560942 26.559123 13.282266 3.168211 11.414181 53.481237 4.688511 0.000000 0.000000 0.000000 
0.096337 0.943104 0.288602 6.295677 -69.435756 3.031521 -1.381215 -0.290895 -4.590235 0.585440 0.582502 -11.258064 14.923534 19.522415 20.781443 0.000000 0.000000 0.000000 -6.917723 2.005420 -12.516823 0.037317 0.531599 -5.499983 12.295871 7.222204 14.276090 0.000000 0.000000 0.000000 12.151109 0.249936 19.321324 15.763340 -2.032379 9.779373 -6.507987 -1.499760 -6.200185 9.426279 -5.428872 -18.593286 0.000000 0.000000 0.000000 -7.075930 -38.942373 21.178142 -8.367491 -30.206879 0.087124 26.338696 -40.832813 -7.326445 0.000000 0.000000 0.000000 28.680053 39.143186 11.056139 27.548171 12.619909 3.275356 13.039551 54.425203 5.368625 0.000000 0.000000 0.000000 
0.097156 0.942992 0.289376 5.856880 -70.224555 3.387824 -1.293959 -0.270881 -4.649553 0.683015 0.537820 -10.990700 15.385991 20.178645 20.901679 0.000000 0.000000 0.000000 -6.687395 1.982603 -12.498343 -0.001853 0.569387 -5.784760 12.828410 7.653069 14.661448 0.000000 0.000000 0.000000 11.814144 0.292957 19.281617 15.664175 -1.863444 9.951285 -6.251032 -2.111388 -6.132653 8.766226 -5.198335 -18.091303 0.000000 0.000000 0.000000 -7.643029 -38.411348 21.436040 -8.166227 -29.948578 0.011144 26.086858 -40.315419 -7.136538 0.000000 0.000000 0.000000 29.059889 39.143717 10.564479 28.601470 12.032475 3.412389 14.936460 54.859799 6.122146 0.000000 0.000000 0.000000 
0.098111 0.942699 0.290352 5.232285 -70.791535 3.753433 -1.067395 -0.213864 -4.301385 0.568818 0.575165 -11.156337 15.647226 20.626657 20.898604 0.000000 0.000000 0.000000 -6.298079 1.922586 -12.401612 -0.260026 0.555129 -5.792695 13.223125 8.126160 14.820806 0.000000 0.000000 0.000000 11.918755 0.361837 19.613713 15.819449 -1.851259 9.948350 -6.340872 -2.887715 -5.963983 8.820551 -5.278125 -18.023018 0.000000 0.000000 0.000000 -7.797150 -38.221998 21.612791 -8.637486 -29.636473 0.049329 27.014511 -40.655111 -7.519196 0.000000 0.000000 0.000000 29.408714 39.387571 10.222687 29.404558 11.692004 3.582465 15.890507 54.925293 6.366311 0.000000 0.000000 0.000000 
0.099338 0.942669 0.291591 4.785347 -71.397588 3.765019 -0.938218 -0.166818 -3.921663 0.462924 0.576468 -11.022592 15.943614 21.155935 20.887480 0.000000 0.000000 0.000000 -5.875045 1.838187 -12.143047 -0.715165 0.517073 -5.747292 13.692027 8.683614 15.006361 0.000000 0.000000 0.000000 11.909918 0.442130 19.894130 15.726881 -1.765622 10.008026 -6.399662 -3.358784 -5.643344 8.715540 -5.278906 -18.137948 0.000000 0.000000 0.000000 -8.078105 -38.297784 21.949057 -9.163650 -29.919014 0.128616 28.104318 -41.045941 -8.005351 0.000000 0.000000 0.000000 30.160017 39.422375 9.814129 29.852184 11.399063 3.730046 16.198999 54.890114 6.373870 0.000000 0.000000 0.000000 
0.100966 0.942461 0.292811 4.530433 -71.629619 3.766346 -0.821354 -0.136697 -3.788094 0.218551 0.598135 -10.889817 16.027629 21.426133 20.697894 0.000000 0.000000 0.000000 -5.627117 1.786378 -11.994142 -1.114009 0.481211 -5.753071 13.908502 8.947015 15.083578 0.000000 0.000000 0.000000 11.954357 0.469107 20.013308 15.783881 -1.716291 10.239580 -6.552779 -3.890032 -5.622718 8.595363 -5.229989 -18.243801 0.000000 0.000000 0.000000 -8.705536 -38.534972 22.517794 -10.035042 -30.139191 0.238828 29.443463 -41.485465 -8.628418 0.000000 0.000000 0.000000 30.521957 39.507597 9.629863 30.292822 11.275175 3.852818 16.049089 54.742821 6.164170 0.000000 0.000000 0.000000 
